<svg width="21" height="20" viewBox="0 0 21 20" fill="none" xmlns="http://www.w3.org/2000/svg">
<path d="M10.5316 18.3333C15.1339 18.3333 18.8649 14.6024 18.8649 10C18.8649 5.39763 15.1339 1.66667 10.5316 1.66667C5.9292 1.66667 2.19824 5.39763 2.19824 10C2.19824 14.6024 5.9292 18.3333 10.5316 18.3333Z" stroke="#111111" stroke-width="1.66667" stroke-linecap="round" stroke-linejoin="round"/>
<path d="M10.5316 13.3333C12.3725 13.3333 13.8649 11.841 13.8649 10C13.8649 8.15906 12.3725 6.66667 10.5316 6.66667C8.69063 6.66667 7.19824 8.15906 7.19824 10C7.19824 11.841 8.69063 13.3333 10.5316 13.3333Z" stroke="#111111" stroke-width="1.66667" stroke-linecap="round" stroke-linejoin="round"/>
<path d="M18.1729 6.66667H10.5312" stroke="#111111" stroke-width="1.66667" stroke-linecap="round" stroke-linejoin="round"/>
<path d="M3.82324 5.05L7.64824 11.6667" stroke="#111111" stroke-width="1.66667" stroke-linecap="round" stroke-linejoin="round"/>
<path d="M9.59766 18.2833L13.4143 11.6667" stroke="#111111" stroke-width="1.66667" stroke-linecap="round" stroke-linejoin="round"/>
</svg>
